<svg width="66" height="46" viewBox="0 0 66 46" fill="none" xmlns="http://www.w3.org/2000/svg">
<path d="M28.88 33.48L29.96 32.7C31.32 31.9 32.28 31.5 32.84 31.5C34.08 31.5 35.42 32.62 36.86 34.86C37.74 36.26 38.18 37.38 38.18 38.22C38.18 39.06 37.9 39.76 37.34 40.32C36.82 40.88 36.2 41.38 35.48 41.82C34.76 42.26 34.06 42.68 33.38 43.08C32.74 43.48 31.4 44 29.36 44.64C27.32 45.28 25.34 45.6 23.42 45.6C21.54 45.6 19.62 45.36 17.66 44.88C15.74 44.36 13.74 43.52 11.66 42.36C9.62 41.16 7.78 39.72 6.14 38.04C4.5 36.32 3.14 34.14 2.06 31.5C1.02 28.82 0.5 25.92 0.5 22.8C0.5 19.68 1.02 16.86 2.06 14.34C3.1 11.78 4.42 9.68 6.02 8.04C7.66 6.36 9.52 4.96 11.6 3.84C15.52 1.68 19.46 0.599999 23.42 0.599999C25.3 0.599999 27.2 0.899999 29.12 1.5C31.08 2.06 32.56 2.64 33.56 3.24L35 4.08C35.72 4.52 36.28 4.88 36.68 5.16C37.72 6 38.24 6.96 38.24 8.04C38.24 9.08 37.82 10.18 36.98 11.34C35.42 13.5 34.02 14.58 32.78 14.58C32.06 14.58 31.04 14.14 29.72 13.26C28.04 11.9 25.8 11.22 23 11.22C20.4 11.22 17.84 12.12 15.32 13.92C14.12 14.8 13.12 16.04 12.32 17.64C11.52 19.24 11.12 21.06 11.12 23.1C11.12 25.1 11.52 26.9 12.32 28.5C13.12 30.1 14.14 31.36 15.38 32.28C17.82 34.04 20.36 34.92 23 34.92C24.24 34.92 25.4 34.76 26.48 34.44C27.6 34.12 28.4 33.8 28.88 33.48Z" fill="black"/>
<path d="M41.125 33.165C41.125 29.565 42.385 26.595 44.905 24.255C47.425 21.915 50.305 20.745 53.545 20.745C56.785 20.745 59.65 21.915 62.14 24.255C64.63 26.565 65.875 29.52 65.875 33.12C65.875 35.61 65.23 37.83 63.94 39.78C62.65 41.7 61.075 43.125 59.215 44.055C57.385 44.955 55.48 45.405 53.5 45.405C51.52 45.405 49.6 44.925 47.74 43.965C45.88 42.975 44.305 41.535 43.015 39.645C41.755 37.725 41.125 35.565 41.125 33.165ZM50.53 36.405C51.49 37.125 52.465 37.485 53.455 37.485C54.445 37.485 55.435 37.11 56.425 36.36C57.415 35.61 57.91 34.5 57.91 33.03C57.91 31.56 57.445 30.465 56.515 29.745C55.585 29.025 54.58 28.665 53.5 28.665C52.42 28.665 51.415 29.04 50.485 29.79C49.555 30.54 49.09 31.65 49.09 33.12C49.09 34.56 49.57 35.655 50.53 36.405Z" fill="black" fill-opacity="0.17"/>
</svg>
