<svg width="342" height="103" viewBox="0 0 342 103" fill="none" xmlns="http://www.w3.org/2000/svg">
<g clip-path="url(#clip0)">
<g filter="url(#filter0_d)">
<path d="M61.3469 67.8L63.1469 66.5C65.4135 65.1667 67.0135 64.5 67.9469 64.5C70.0135 64.5 72.2469 66.3667 74.6469 70.1C76.1135 72.4333 76.8469 74.3 76.8469 75.7C76.8469 77.1 76.3802 78.2667 75.4469 79.2C74.5802 80.1333 73.5469 80.9667 72.3469 81.7C71.1469 82.4333 69.9802 83.1333 68.8469 83.8C67.7802 84.4667 65.5469 85.3333 62.1469 86.4C58.7469 87.4667 55.4469 88 52.2469 88C49.1135 88 45.9135 87.6 42.6469 86.8C39.4469 85.9333 36.1135 84.5333 32.6469 82.6C29.2469 80.6 26.1802 78.2 23.4469 75.4C20.7135 72.5333 18.4469 68.9 16.6469 64.5C14.9135 60.0333 14.0469 55.2 14.0469 50C14.0469 44.8 14.9135 40.1 16.6469 35.9C18.3802 31.6333 20.5802 28.1333 23.2469 25.4C25.9802 22.6 29.0802 20.2667 32.5469 18.4C39.0802 14.8 45.6469 13 52.2469 13C55.3802 13 58.5469 13.5 61.7469 14.5C65.0135 15.4333 67.4802 16.4 69.1469 17.4L71.5469 18.8C72.7469 19.5333 73.6802 20.1333 74.3469 20.6C76.0802 22 76.9469 23.6 76.9469 25.4C76.9469 27.1333 76.2469 28.9667 74.8469 30.9C72.2469 34.5 69.9135 36.3 67.8469 36.3C66.6469 36.3 64.9469 35.5667 62.7469 34.1C59.9469 31.8333 56.2135 30.7 51.5469 30.7C47.2135 30.7 42.9469 32.2 38.7469 35.2C36.7469 36.6667 35.0802 38.7333 33.7469 41.4C32.4135 44.0667 31.7469 47.1 31.7469 50.5C31.7469 53.8333 32.4135 56.8333 33.7469 59.5C35.0802 62.1667 36.7802 64.2667 38.8469 65.8C42.9135 68.7333 47.1469 70.2 51.5469 70.2C53.6135 70.2 55.5469 69.9333 57.3469 69.4C59.2135 68.8667 60.5469 68.3333 61.3469 67.8ZM81.918 60.7C81.918 52.7 84.718 46.1 90.318 40.9C95.918 35.7 102.318 33.1 109.518 33.1C116.718 33.1 123.085 35.7 128.618 40.9C134.151 46.0333 136.918 52.6 136.918 60.6C136.918 66.1333 135.485 71.0667 132.618 75.4C129.751 79.6667 126.251 82.8333 122.118 84.9C118.051 86.9 113.818 87.9 109.418 87.9C105.018 87.9 100.751 86.8333 96.618 84.7C92.4846 82.5 88.9846 79.3 86.118 75.1C83.318 70.8333 81.918 66.0333 81.918 60.7ZM102.818 67.9C104.951 69.5 107.118 70.3 109.318 70.3C111.518 70.3 113.718 69.4667 115.918 67.8C118.118 66.1333 119.218 63.6667 119.218 60.4C119.218 57.1333 118.185 54.7 116.118 53.1C114.051 51.5 111.818 50.7 109.418 50.7C107.018 50.7 104.785 51.5333 102.718 53.2C100.651 54.8667 99.618 57.3333 99.618 60.6C99.618 63.8 100.685 66.2333 102.818 67.9ZM179.179 34.9C180.446 35.3 181.479 36 182.279 37C183.146 37.9333 183.579 39.4667 183.579 41.6C183.579 43.7333 182.946 46.0667 181.679 48.6C180.412 51.1333 178.579 52.4 176.179 52.4C174.979 52.4 173.812 52.1333 172.679 51.6C171.612 51.0667 170.179 50.8 168.379 50.8C166.579 50.8 164.879 51.4333 163.279 52.7C161.746 53.9667 160.979 55.5 160.979 57.3V78.3C160.979 79.8333 160.912 81 160.779 81.8C160.712 82.5333 160.412 83.4 159.879 84.4C158.879 86.1333 156.279 87 152.079 87C148.879 87 146.579 86.4333 145.179 85.3C144.112 84.3667 143.512 82.9333 143.379 81C143.379 80.3333 143.379 79.3667 143.379 78.1V43C143.379 41.4667 143.412 40.3333 143.479 39.6C143.612 38.8 143.912 37.9333 144.379 37C145.312 35.2 147.912 34.3 152.179 34.3C156.179 34.3 158.679 35.0667 159.679 36.6C160.412 37.6667 160.779 38.7667 160.779 39.9C161.112 39.4333 161.579 38.8667 162.179 38.2C162.846 37.5333 164.212 36.6333 166.279 35.5C168.346 34.3667 170.146 33.8 171.679 33.8C173.279 33.8 174.612 33.9 175.679 34.1C176.746 34.2333 177.912 34.5 179.179 34.9ZM189.082 43.1C189.082 41.5667 189.115 40.4333 189.182 39.7C189.315 38.9 189.615 38 190.082 37C191.015 35.2667 193.615 34.4 197.882 34.4C201.082 34.4 203.349 34.9667 204.682 36.1C205.815 37.0333 206.415 38.4667 206.482 40.4C206.549 41.0667 206.582 42.0333 206.582 43.3V78.3C206.582 79.8333 206.515 81 206.382 81.8C206.315 82.5333 206.015 83.4 205.482 84.4C204.615 86.1333 202.049 87 197.782 87C193.582 87 191.015 86.1 190.082 84.3C189.615 83.3 189.315 82.4333 189.182 81.7C189.115 80.9667 189.082 79.8 189.082 78.2V43.1ZM205.482 24.6C205.015 25.5333 204.149 26.2 202.882 26.6C201.615 27 199.915 27.2 197.782 27.2C195.715 27.2 194.049 27 192.782 26.6C191.515 26.2 190.615 25.5 190.082 24.5C189.615 23.5 189.315 22.6333 189.182 21.9C189.115 21.1 189.082 19.9333 189.082 18.4C189.082 16.8667 189.115 15.7333 189.182 15C189.315 14.2 189.615 13.3333 190.082 12.4C191.015 10.6 193.615 9.69999 197.882 9.69999C202.082 9.69999 204.615 10.6 205.482 12.4C206.015 13.4 206.315 14.3 206.382 15.1C206.515 15.8333 206.582 16.9667 206.582 18.5C206.582 20.0333 206.515 21.2 206.382 22C206.315 22.7333 206.015 23.6 205.482 24.6ZM245.17 52L238.67 51.6V65.4C238.67 67.2 238.937 68.5 239.47 69.3C240.07 70.1 241.137 70.5 242.67 70.5C244.27 70.5 245.47 70.5667 246.27 70.7C247.137 70.7667 248.037 71.0667 248.97 71.6C250.504 72.4667 251.27 74.7 251.27 78.3C251.27 82.5 250.337 85.0667 248.47 86C247.47 86.4667 246.57 86.7667 245.77 86.9C245.037 86.9667 243.937 87 242.47 87C235.537 87 230.27 85.4333 226.67 82.3C223.07 79.1667 221.27 73.8667 221.27 66.4V51.6C220.004 51.8 218.637 51.9 217.17 51.9C215.704 51.9 214.47 51.3333 213.47 50.2C212.537 49.0667 212.07 47.1333 212.07 44.4C212.07 41.6667 212.237 39.7 212.57 38.5C212.904 37.2333 213.37 36.3333 213.97 35.8C215.037 34.9333 216.37 34.5 217.97 34.5L221.27 34.9V24.6C221.27 23.0667 221.304 21.9333 221.37 21.2C221.504 20.4667 221.837 19.6667 222.37 18.8C223.237 17.1333 225.804 16.3 230.07 16.3C234.604 16.3 237.304 17.5333 238.17 20C238.504 21.0667 238.67 22.7667 238.67 25.1V34.9C241.604 34.6333 243.804 34.5 245.27 34.5C246.804 34.5 247.937 34.5667 248.67 34.7C249.47 34.7667 250.37 35.0667 251.37 35.6C253.104 36.4667 253.97 39.0333 253.97 43.3C253.97 47.5 253.07 50.0667 251.27 51C250.27 51.4667 249.37 51.7667 248.57 51.9C247.837 51.9667 246.704 52 245.17 52ZM257.992 60.7C257.992 52.7 260.792 46.1 266.392 40.9C271.992 35.7 278.392 33.1 285.592 33.1C292.792 33.1 299.159 35.7 304.692 40.9C310.226 46.0333 312.992 52.6 312.992 60.6C312.992 66.1333 311.559 71.0667 308.692 75.4C305.826 79.6667 302.326 82.8333 298.192 84.9C294.126 86.9 289.892 87.9 285.492 87.9C281.092 87.9 276.826 86.8333 272.692 84.7C268.559 82.5 265.059 79.3 262.192 75.1C259.392 70.8333 257.992 66.0333 257.992 60.7ZM278.892 67.9C281.026 69.5 283.192 70.3 285.392 70.3C287.592 70.3 289.792 69.4667 291.992 67.8C294.192 66.1333 295.292 63.6667 295.292 60.4C295.292 57.1333 294.259 54.7 292.192 53.1C290.126 51.5 287.892 50.7 285.492 50.7C283.092 50.7 280.859 51.5333 278.792 53.2C276.726 54.8667 275.692 57.3333 275.692 60.6C275.692 63.8 276.759 66.2333 278.892 67.9Z" fill="#1C2833"/>
</g>
<circle cx="285.5" cy="60.5" r="9.5" fill="#C4C4C4"/>
<circle cx="198.25" cy="18.25" r="10.25" fill="#C4C4C4"/>
</g>
<defs>
<filter id="filter0_d" x="10.0469" y="9.7" width="306.945" height="86.3" filterUnits="userSpaceOnUse" color-interpolation-filters="sRGB">
<feFlood flood-opacity="0" result="BackgroundImageFix"/>
<feColorMatrix in="SourceAlpha" type="matrix" values="0 0 0 0 0 0 0 0 0 0 0 0 0 0 0 0 0 0 127 0"/>
<feOffset dy="4"/>
<feGaussianBlur stdDeviation="2"/>
<feColorMatrix type="matrix" values="0 0 0 0 0 0 0 0 0 0 0 0 0 0 0 0 0 0 0.25 0"/>
<feBlend mode="normal" in2="BackgroundImageFix" result="effect1_dropShadow"/>
<feBlend mode="normal" in="SourceGraphic" in2="effect1_dropShadow" result="shape"/>
</filter>
<clipPath id="clip0">
<rect width="342" height="103" fill="white"/>
</clipPath>
</defs>
</svg>
